<?xml version="1.0" encoding="UTF-8" standalone="no"?>
<!DOCTYPE svg PUBLIC "-//W3C//DTD SVG 1.1//EN"
 "http://www.w3.org/Graphics/SVG/1.1/DTD/svg11.dtd">
<!-- Generated by graphviz version 2.36.0 (20140111.2315)
 -->
<!-- Title: %3 Pages: 1 -->
<svg width="152pt" height="332pt"
 viewBox="0.00 0.00 152.00 332.00" xmlns="http://www.w3.org/2000/svg" xmlns:xlink="http://www.w3.org/1999/xlink">
<g id="graph0" class="graph" transform="scale(1 1) rotate(0) translate(4 328)">
<title>%3</title>
<polygon fill="white" stroke="none" points="-4,4 -4,-328 148,-328 148,4 -4,4"/>
<!-- 3 -->
<g id="node1" class="node"><title>3</title>
<ellipse fill="none" stroke="red" cx="58" cy="-306" rx="18" ry="18"/>
<text text-anchor="middle" x="58" y="-302.3" font-family="Times,serif" font-size="14.00">3</text>
</g>
<!-- 2 -->
<g id="node3" class="node"><title>2</title>
<ellipse fill="none" stroke="black" cx="31" cy="-234" rx="18" ry="18"/>
<text text-anchor="middle" x="31" y="-230.3" font-family="Times,serif" font-size="14.00">2</text>
</g>
<!-- 3&#45;&gt;2 -->
<g id="edge1" class="edge"><title>3:sw&#45;&gt;2</title>
<path fill="none" stroke="black" stroke-width="2" d="M45,-292C32.8132,-283.81 26.9143,-271.654 24.9099,-260.67"/>
<polygon fill="black" stroke="black" stroke-width="2" points="28.3957,-260.352 24.1034,-250.666 21.4184,-260.915 28.3957,-260.352"/>
</g>
<!-- 8 -->
<g id="node4" class="node"><title>8</title>
<ellipse fill="none" stroke="black" cx="85" cy="-234" rx="18" ry="18"/>
<text text-anchor="middle" x="85" y="-230.3" font-family="Times,serif" font-size="14.00">8</text>
</g>
<!-- 3&#45;&gt;8 -->
<g id="edge3" class="edge"><title>3:se&#45;&gt;8</title>
<path fill="none" stroke="black" stroke-width="2" d="M71,-292C75.1663,-283.864 76.63,-271.816 77.737,-260.89"/>
<polygon fill="black" stroke="black" stroke-width="2" points="81.2205,-261.229 78.7656,-250.923 74.2575,-260.51 81.2205,-261.229"/>
</g>
<!-- 5 -->
<g id="node2" class="node"><title>5</title>
<ellipse fill="none" stroke="red" cx="72" cy="-162" rx="18" ry="18"/>
<text text-anchor="middle" x="72" y="-158.3" font-family="Times,serif" font-size="14.00">5</text>
</g>
<!-- 5&#45;&gt;8 -->
<g id="edge8" class="edge"><title>5&#45;&gt;8</title>
<path fill="none" stroke="black" stroke-dasharray="1,5" d="M72.9021,-180.166C71.2017,-189.223 68.9242,-200.361 69.5386,-209.69"/>
<polygon fill="black" stroke="black" points="66.1577,-210.606 71.796,-219.576 72.9821,-209.048 66.1577,-210.606"/>
</g>
<!-- 4 -->
<g id="node7" class="node"><title>4</title>
<ellipse fill="none" stroke="black" cx="45" cy="-90" rx="18" ry="18"/>
<text text-anchor="middle" x="45" y="-86.3" font-family="Times,serif" font-size="14.00">4</text>
</g>
<!-- 5&#45;&gt;4 -->
<g id="edge11" class="edge"><title>5:sw&#45;&gt;4</title>
<path fill="none" stroke="black" stroke-width="2" d="M59,-148C46.8132,-139.81 40.9143,-127.654 38.9099,-116.67"/>
<polygon fill="black" stroke="black" stroke-width="2" points="42.3957,-116.352 38.1034,-106.666 35.4184,-116.915 42.3957,-116.352"/>
</g>
<!-- 7 -->
<g id="node8" class="node"><title>7</title>
<ellipse fill="none" stroke="black" cx="99" cy="-90" rx="18" ry="18"/>
<text text-anchor="middle" x="99" y="-86.3" font-family="Times,serif" font-size="14.00">7</text>
</g>
<!-- 5&#45;&gt;7 -->
<g id="edge13" class="edge"><title>5:se&#45;&gt;7</title>
<path fill="none" stroke="black" stroke-width="2" d="M85,-148C89.1663,-139.864 90.63,-127.816 91.737,-116.89"/>
<polygon fill="black" stroke="black" stroke-width="2" points="95.2205,-117.229 92.7656,-106.923 88.2575,-116.51 95.2205,-117.229"/>
</g>
<!-- 2&#45;&gt;3 -->
<g id="edge2" class="edge"><title>2&#45;&gt;3</title>
<path fill="none" stroke="black" stroke-dasharray="1,5" d="M37.2391,-250.963C38.3063,-260.229 39.0181,-271.98 41.4179,-281.83"/>
<polygon fill="black" stroke="black" points="38.2074,-283.255 44.7811,-291.564 44.8236,-280.969 38.2074,-283.255"/>
</g>
<!-- 1 -->
<g id="node5" class="node"><title>1</title>
<ellipse fill="none" stroke="black" cx="18" cy="-162" rx="18" ry="18"/>
<text text-anchor="middle" x="18" y="-158.3" font-family="Times,serif" font-size="14.00">1</text>
</g>
<!-- 2&#45;&gt;1 -->
<g id="edge5" class="edge"><title>2:sw&#45;&gt;1</title>
<path fill="none" stroke="black" stroke-width="2" d="M18,-220C4.99012,-211.341 2.45508,-197.734 4.32454,-185.986"/>
<polygon fill="black" stroke="black" stroke-width="2" points="7.7086,-186.879 6.94862,-176.312 0.952722,-185.047 7.7086,-186.879"/>
</g>
<!-- 8&#45;&gt;3 -->
<g id="edge4" class="edge"><title>8&#45;&gt;3</title>
<path fill="none" stroke="black" stroke-dasharray="1,5" d="M91.9,-250.815C92.1211,-261.147 88.8061,-274.615 79.0978,-285.087"/>
<polygon fill="black" stroke="black" points="76.6152,-282.606 71.3202,-291.783 81.1822,-287.911 76.6152,-282.606"/>
</g>
<!-- 8&#45;&gt;5 -->
<g id="edge7" class="edge"><title>8:sw&#45;&gt;5</title>
<path fill="none" stroke="black" stroke-width="2" d="M72,-220C58.9901,-211.341 56.4551,-197.734 58.3245,-185.986"/>
<polygon fill="black" stroke="black" stroke-width="2" points="61.7086,-186.879 60.9486,-176.312 54.9527,-185.047 61.7086,-186.879"/>
</g>
<!-- 9 -->
<g id="node6" class="node"><title>9</title>
<ellipse fill="none" stroke="black" cx="126" cy="-162" rx="18" ry="18"/>
<text text-anchor="middle" x="126" y="-158.3" font-family="Times,serif" font-size="14.00">9</text>
</g>
<!-- 8&#45;&gt;9 -->
<g id="edge9" class="edge"><title>8:se&#45;&gt;9</title>
<path fill="none" stroke="black" stroke-width="2" d="M98,-220C103.047,-210.808 107.475,-197.992 111.664,-186.84"/>
<polygon fill="black" stroke="black" stroke-width="2" points="115.045,-187.805 115.453,-177.218 108.532,-185.24 115.045,-187.805"/>
</g>
<!-- 1&#45;&gt;2 -->
<g id="edge6" class="edge"><title>1&#45;&gt;2</title>
<path fill="none" stroke="black" stroke-dasharray="1,5" d="M18.9021,-180.166C17.2017,-189.223 14.9242,-200.361 15.5386,-209.69"/>
<polygon fill="black" stroke="black" points="12.1577,-210.606 17.796,-219.576 18.9821,-209.048 12.1577,-210.606"/>
</g>
<!-- 9&#45;&gt;8 -->
<g id="edge10" class="edge"><title>9&#45;&gt;8</title>
<path fill="none" stroke="black" stroke-dasharray="1,5" d="M127.579,-180.141C124.46,-190.208 117.488,-202.953 106.3,-213.336"/>
<polygon fill="black" stroke="black" points="103.919,-210.76 98.3384,-219.765 108.317,-216.206 103.919,-210.76"/>
</g>
<!-- 4&#45;&gt;5 -->
<g id="edge12" class="edge"><title>4&#45;&gt;5</title>
<path fill="none" stroke="black" stroke-dasharray="1,5" d="M51.2391,-106.963C52.3063,-116.229 53.0181,-127.98 55.4179,-137.83"/>
<polygon fill="black" stroke="black" points="52.2074,-139.255 58.7811,-147.564 58.8236,-136.969 52.2074,-139.255"/>
</g>
<!-- 7&#45;&gt;5 -->
<g id="edge14" class="edge"><title>7&#45;&gt;5</title>
<path fill="none" stroke="black" stroke-dasharray="1,5" d="M105.9,-106.815C106.121,-117.147 102.806,-130.615 93.0978,-141.087"/>
<polygon fill="black" stroke="black" points="90.6152,-138.606 85.3202,-147.783 95.1822,-143.911 90.6152,-138.606"/>
</g>
<!-- 6 -->
<g id="node9" class="node"><title>6</title>
<ellipse fill="none" stroke="black" cx="86" cy="-18" rx="18" ry="18"/>
<text text-anchor="middle" x="86" y="-14.3" font-family="Times,serif" font-size="14.00">6</text>
</g>
<!-- 7&#45;&gt;6 -->
<g id="edge15" class="edge"><title>7:sw&#45;&gt;6</title>
<path fill="none" stroke="black" stroke-width="2" d="M86,-76C72.9901,-67.3407 70.4551,-53.7338 72.3245,-41.986"/>
<polygon fill="black" stroke="black" stroke-width="2" points="75.7086,-42.8794 74.9486,-32.3119 68.9527,-41.0469 75.7086,-42.8794"/>
</g>
<!-- 6&#45;&gt;7 -->
<g id="edge16" class="edge"><title>6&#45;&gt;7</title>
<path fill="none" stroke="black" stroke-dasharray="1,5" d="M86.9021,-36.1661C85.2017,-45.2234 82.9242,-56.3611 83.5386,-65.6896"/>
<polygon fill="black" stroke="black" points="80.1577,-66.6063 85.796,-75.5763 86.9821,-65.0481 80.1577,-66.6063"/>
</g>
</g>
</svg>
