<?xml version="1.0" encoding="UTF-8" standalone="no"?>
<!DOCTYPE svg PUBLIC "-//W3C//DTD SVG 1.1//EN"
 "http://www.w3.org/Graphics/SVG/1.1/DTD/svg11.dtd">
<!-- Generated by graphviz version 2.36.0 (20140111.2315)
 -->
<!-- Title: %3 Pages: 1 -->
<svg width="144pt" height="188pt"
 viewBox="0.00 0.00 144.00 188.00" xmlns="http://www.w3.org/2000/svg" xmlns:xlink="http://www.w3.org/1999/xlink">
<g id="graph0" class="graph" transform="scale(1 1) rotate(0) translate(4 184)">
<title>%3</title>
<polygon fill="white" stroke="none" points="-4,4 -4,-184 140,-184 140,4 -4,4"/>
<!-- a -->
<g id="node1" class="node"><title>a</title>
<ellipse fill="none" stroke="black" cx="91" cy="-162" rx="27" ry="18"/>
<text text-anchor="middle" x="91" y="-158.3" font-family="Times,serif" font-size="14.00">a</text>
</g>
<!-- b -->
<g id="node2" class="node"><title>b</title>
<ellipse fill="none" stroke="black" cx="27" cy="-90" rx="27" ry="18"/>
<text text-anchor="middle" x="27" y="-86.3" font-family="Times,serif" font-size="14.00">b</text>
</g>
<!-- a&#45;&#45;b -->
<g id="edge1" class="edge"><title>a&#45;&#45;b</title>
<path fill="none" stroke="black" d="M77.4272,-146.155C66.5662,-134.276 51.409,-117.697 40.5532,-105.824"/>
</g>
<!-- c -->
<g id="node3" class="node"><title>c</title>
<ellipse fill="none" stroke="black" cx="91" cy="-18" rx="27" ry="18"/>
<text text-anchor="middle" x="91" y="-14.3" font-family="Times,serif" font-size="14.00">c</text>
</g>
<!-- a&#45;&#45;c -->
<g id="edge3" class="edge"><title>a&#45;&#45;c</title>
<path fill="none" stroke="black" d="M86.4455,-144.153C83.5174,-116.824 83.5182,-63.14 86.4478,-35.825"/>
</g>
<!-- a&#45;&#45;c -->
<g id="edge5" class="edge"><title>a&#45;&#45;c</title>
<path fill="none" stroke="black" d="M95.5545,-144.153C98.4826,-116.824 98.4818,-63.14 95.5522,-35.825"/>
</g>
<!-- b&#45;&#45;c -->
<g id="edge2" class="edge"><title>b&#45;&#45;c</title>
<path fill="none" stroke="black" d="M40.5728,-74.1548C51.4338,-62.2756 66.591,-45.6974 77.4468,-33.8238"/>
</g>
<!-- c&#45;&#45;c -->
<g id="edge4" class="edge"><title>c&#45;&#45;c</title>
<path fill="none" stroke="black" d="M110.895,-30.4321C123.688,-33.6753 136,-29.5312 136,-18 136,-6.46875 123.688,-2.32471 110.895,-5.56787"/>
</g>
</g>
</svg>
